<svg xmlns="http://www.w3.org/2000/svg" viewBox="0 0 118.77 118.91"><defs><style>.cls-1{fill:#fff;}</style></defs><g id="Capa_2" data-name="Capa 2"><g id="Layer_1" data-name="Layer 1"><path class="cls-1" d="M39.83,31.76a20.59,20.59,0,0,1,3.4.39c.67.09,1.29,1.08,1.65,1.79,1.62,3.81,3.25,7.61,4.65,11.51.79,2.06-.65,4-3.68,7.43a2.61,2.61,0,0,0-.43,3.36A39.84,39.84,0,0,0,65.79,73.83a3.19,3.19,0,0,0,1.11.23,2.56,2.56,0,0,0,2-1.08c3.79-4.59,4.87-6.59,6.41-6.59a2.94,2.94,0,0,1,1.29.36c11.86,5.69,12.8,5.91,12.84,7.26.31,9.53-8,13.28-13.62,13.28-.3,0-.58,0-.86,0-11.5-.41-29.78-9.49-42.19-31.34-4.38-7.74-3.68-16.56,2.9-22.65A5.78,5.78,0,0,1,39.83,31.76Z"/><path class="cls-1" d="M117.87,48a59.63,59.63,0,0,1-48.25,69.17,61.69,61.69,0,0,1-10.33.89,59.63,59.63,0,0,1-26.42-6.27,5.77,5.77,0,0,0-2.45-.53,5,5,0,0,0-1.18.13C13.59,115.37,3.18,118.28,0,118.91l1.89-7c2-7.16,4.09-14.28,6-21.44A5.3,5.3,0,0,0,7.58,87,59.34,59.34,0,0,1,46.87,1.62,60.82,60.82,0,0,1,60.73,0,58.24,58.24,0,0,1,117.87,48ZM67.19,107.72a49.73,49.73,0,0,0,41.43-56,48.79,48.79,0,0,0-48.27-42,50.08,50.08,0,0,0-9,.82c-33.18,6.09-51,43-34.8,72.3,1.81,3.22,2.28,5.9,1,9.35-1.46,4.16-2.39,8.46-3.72,13.16,5.87-1.52,11.3-2.86,16.68-4.38a4.88,4.88,0,0,1,4,.58,48.4,48.4,0,0,0,24.6,6.83,51.42,51.42,0,0,0,8-.65"/></g></g></svg>