<svg xmlns="http://www.w3.org/2000/svg" viewBox="0 0 66.23 125.94"><defs><style>.cls-1{fill:#fff;}</style></defs><g id="Capa_2" data-name="Capa 2"><g id="Layer_1" data-name="Layer 1"><path class="cls-1" d="M49.68,0c3.37,0,6.76.18,10.11.33,2.2.09,4.39.41,6.44.63l-.15,20.28H64.47c-2.23,0-4.45,0-6.68,0-1.67,0-3.34,0-5,.07-5.37.18-9.32,2.2-9.6,8.91C43,35,42.89,45.7,42.88,46.26l10.94,0c2.67,0,5.28,0,7.1,0h4.34c-1.09,7.79-2.08,15.27-3.17,22.79H42.88l-.43,56.89H18.86l.43-57H0L.17,46.31H19.56v-1.7c0-4.57,0-9.14.15-13.7a55.4,55.4,0,0,1,.74-8.69C21.76,15.29,25,9.47,30.79,5.3A29.7,29.7,0,0,1,47.8,0Z"/></g></g></svg>