<svg xmlns="http://www.w3.org/2000/svg" viewBox="0 0 115.2 80.7"><defs><style>.cls-1{fill:#fff;}</style></defs><g id="Capa_2" data-name="Capa 2"><g id="Layer_1" data-name="Layer 1"><path class="cls-1" d="M112.28,10.47c4.12,10.88,4,50.49-1,61A13.93,13.93,0,0,1,105,77.75c-3.89,2-26.43,3-48.51,3-20.32,0-40.26-.8-44.92-2.32a13.34,13.34,0,0,1-8.8-8.6C-.95,59.26-1.77,15.21,5.68,6.53a14.35,14.35,0,0,1,9.66-5.1C24.2.47,41.29,0,58.14,0c21,0,41.61.73,45.52,2.14A13.6,13.6,0,0,1,112.28,10.47Zm-69,47.27c12-6.22,23.87-12.35,35.91-18.58L43.58,20.5c-.1,12.44-.19,24.75-.29,37.24"/></g></g></svg>