<svg xmlns="http://www.w3.org/2000/svg" viewBox="0 0 111.51 111.46"><defs><style>.cls-1{fill:#fff;}</style></defs><g id="Capa_2" data-name="Capa 2"><g id="Layer_1" data-name="Layer 1"><path class="cls-1" d="M85.69,19.38h.08a6.63,6.63,0,0,1,6.62,6.72,6.75,6.75,0,0,1-6.76,6.67,6.7,6.7,0,0,1,.06-13.39Z"/><path class="cls-1" d="M110.82,28c.83,8.77,1.37,50.23-1.22,59.94-3.45,12.71-11.74,20.23-24.61,22.29-4.8.78-17.78,1.25-30.75,1.25-13.27,0-26.52-.49-31-1.65C10.62,106.54,3.07,98.31,1.07,85.5-.43,76.1-.59,32.41,2.13,22.92,5.67,10.57,13.91,3.31,26.42,1.25,32.09.33,43.17,0,54.36,0c10.4,0,20.9.28,27.22.63C89.23,1,96.24,3.49,101.92,9A29.31,29.31,0,0,1,110.82,28ZM100.1,83.67c1.6-9.81,1.6-45.57.69-54.75-1-9.8-7-16.25-16.7-17.77-4.8-.73-16.36-1.05-27.87-1.05-11.1,0-22.15.3-27,.82C19.49,12,13,18,11.4,27.71,9.8,38,9.82,76.28,11,84c1.23,8,5.76,13.52,13.75,15.76,4.33,1.21,17.28,1.65,30,1.65,11.69,0,23.17-.37,27.49-.85,9.81-1.07,16.3-7.11,17.85-16.87"/><path class="cls-1" d="M56,27.17A28.33,28.33,0,0,1,84.33,55.78,28.85,28.85,0,0,1,55.51,84.34,28.3,28.3,0,0,1,27.17,55.73,28.8,28.8,0,0,1,56,27.17Zm-.42,47.05A18.67,18.67,0,0,0,74.22,55.91,18.3,18.3,0,0,0,56.05,37.25h-.17A18.68,18.68,0,0,0,37.24,55.55,18.32,18.32,0,0,0,55.41,74.22h.16"/></g></g></svg>